<svg width="32" height="32" viewBox="0 0 32 32" xmlns="http://www.w3.org/2000/svg">
  <rect width="32" height="32" rx="4" fill="#282C33" stroke="#C778DD" stroke-width="2" />
  <path
    d="M16 8a8 8 0 0 0-2.53 15.6c.4.07.55-.17.55-.39 0-.19-.01-.82-.01-1.48-2.01.37-2.53-.49-2.69-.94-.09-.22-.48-.94-.82-1.13-.28-.15-.68-.52-.01-.53.63-.01 1.08.58 1.23.82.72 1.21 1.87.87 2.33.66.07-.52.28-.87.51-1.07-1.78-.2-3.64-.9-3.64-4 0-.88.31-1.59.82-2.15-.08-.2-.36-1.02.08-2.12 0 0 .67-.21 2.2.82a7.45 7.45 0 0 1 4 0c1.53-1.03 2.2-.82 2.2-.82.44 1.1.16 1.92.08 2.12.51.56.82 1.27.82 2.15 0 3.11-1.87 3.8-3.65 4 .29.25.55.74.55 1.5 0 1.08-.01 1.94-.01 2.2 0 .21.15.46.55.39A8 8 0 0 0 16 8z"
    fill="#C778DD"
  />
</svg>
